<?xml version="1.0" encoding="UTF-8" standalone="no"?>
<svg
   width="851.40002"
   height="200"
   xml:space="preserve"
   version="1.1"
   id="svg4"
   sodipodi:docname="ArelionLogo.svg"
   inkscape:version="1.1.2 (b8e25be833, 2022-02-05)"
   xmlns:inkscape="http://www.inkscape.org/namespaces/inkscape"
   xmlns:sodipodi="http://sodipodi.sourceforge.net/DTD/sodipodi-0.dtd"
   xmlns="http://www.w3.org/2000/svg"
   xmlns:svg="http://www.w3.org/2000/svg"><defs
     id="defs8" /><sodipodi:namedview
     id="namedview6"
     pagecolor="#ffffff"
     bordercolor="#666666"
     borderopacity="1.0"
     inkscape:pageshadow="2"
     inkscape:pageopacity="0.0"
     inkscape:pagecheckerboard="0"
     showgrid="false"
     fit-margin-top="0"
     fit-margin-left="0"
     fit-margin-right="0"
     fit-margin-bottom="0"
     inkscape:zoom="1.0042796"
     inkscape:cx="425.67827"
     inkscape:cy="100.5696"
     inkscape:window-width="1920"
     inkscape:window-height="1017"
     inkscape:window-x="-8"
     inkscape:window-y="-8"
     inkscape:window-maximized="1"
     inkscape:current-layer="svg4" /><path
     d="M 364.6,177 H 343.5 L 325.7,131.4 H 255.9 L 237.8,177 H 217.5 L 279.8,22.8 h 22.7 z M 318.8,113.8 298.5,62 c -4,-9.9 -7,-19.2 -7.7,-21.8 -0.4,2.6 -3.1,10.4 -7.7,21.8 l -20.5,51.8 z M 372.2,67.6 H 390 v 18.9 c 4.4,-11.7 14.1,-20.7 27.8,-20.7 h 9.5 v 18.1 h -8.8 c -21.1,0 -27.8,18.7 -27.8,40.3 V 177 h -18.5 z m 57.7,54.8 c 0,-32.2 19.2,-57.9 50.9,-57.9 34.4,0 51.8,28 48.9,60.6 l -0.1,1.2 h -81.8 c 0.9,21.2 13.4,37.4 34.6,37.4 14.5,0 23.1,-6.3 28,-17.5 H 529 c -6.8,22.2 -23.1,33.9 -46.7,33.9 -32.4,0 -52.4,-25.3 -52.4,-57.7 z m 81.9,-11.9 c -2.4,-18.1 -13,-29.1 -31.7,-29.1 -18.5,0 -28.4,11.3 -31.5,29.1 z M 567,18.4 v 130.2 c 0,8.8 4.2,13.4 12.8,13.7 v 16.1 c -19.2,0 -31.3,-7.3 -31.3,-27.8 V 18.4 Z m 41.7,3.6 c 7.3,0 13,5.7 13,12.6 0,7 -5.7,12.6 -13,12.6 -7,0 -13,-5.5 -13,-12.6 0,-6.9 5.9,-12.6 13,-12.6 z m -9.3,45.6 h 18.5 V 177 h -18.5 z m 37.4,54.6 c 0,-32.2 20.9,-57.9 53.1,-57.9 31.9,0 53.1,25.8 53.1,57.9 0,32.6 -21.1,57.9 -53.1,57.9 -32.2,0 -53.1,-25.3 -53.1,-57.9 z m 53.1,40.5 c 21.8,0 34.6,-17.8 34.6,-40.5 0,-22.2 -12.8,-40.3 -34.6,-40.3 -22,0 -34.6,18.1 -34.6,40.3 0,22.7 12.6,40.5 34.6,40.5 z m 71,-95.1 h 17.8 v 18.1 c 6.6,-13.4 20.5,-20.9 35.9,-20.9 22,0 36.8,15.4 36.8,37.4 V 177 H 833 v -69.4 c 0,-15 -7.7,-25.6 -23.6,-25.6 -17.4,0 -30,12.8 -30,30.6 V 177 H 760.9 Z M 177.1,35.7 164.3,22.9 109,78.2 V 0 H 91 V 78.2 L 35.7,22.9 22.9,35.7 78.2,91 0,91.1 v 18.1 L 78.2,109.1 22.9,164.4 35.7,177.2 91,121.9 V 200 h 18 v -78.2 l 55.3,55.3 12.8,-12.8 L 121.8,109 H 200 V 91 h -78.2 z"
     id="path2" /></svg>
